<svg width="1347" height="609" viewBox="0 0 1347 609" fill="none" xmlns="http://www.w3.org/2000/svg">
<rect width="1347" height="609" fill="#E5E5E5"/>
<g id="Desktop - 1">
<g clip-path="url(#clip0)">
<rect width="1347" height="609" fill="white"/>
<rect id="Rectangle 1" width="1440" height="1024" fill="black"/>
<path id="Hello. I am Kalina" d="M188.227 245H164.667V162.847H75.0674V245H51.6299V67.2656H75.0674V143.682H164.667V67.2656H188.227V245ZM281.122 247.441C263.218 247.441 248.651 241.582 237.421 229.863C226.19 218.063 220.575 202.316 220.575 182.622V178.472C220.575 165.369 223.057 153.691 228.021 143.438C233.067 133.102 240.066 125.046 249.018 119.268C258.051 113.408 267.816 110.479 278.314 110.479C295.486 110.479 308.832 116.134 318.354 127.446C327.875 138.758 332.636 154.953 332.636 176.03V185.43H243.158C243.484 198.451 247.268 208.989 254.511 217.046C261.835 225.021 271.112 229.009 282.343 229.009C290.318 229.009 297.073 227.381 302.606 224.126C308.14 220.871 312.982 216.558 317.133 211.187L330.927 221.929C319.859 238.937 303.257 247.441 281.122 247.441ZM278.314 129.033C269.2 129.033 261.55 132.37 255.365 139.043C249.18 145.635 245.355 154.912 243.891 166.875H310.053V165.166C309.402 153.691 306.309 144.821 300.775 138.555C295.242 132.207 287.755 129.033 278.314 129.033ZM383.417 245H360.834V57.5H383.417V245ZM444.208 245H421.625V57.5H444.208V245ZM474.481 177.739C474.481 164.8 477.004 153.162 482.05 142.827C487.177 132.492 494.257 124.517 503.29 118.901C512.405 113.286 522.781 110.479 534.418 110.479C552.403 110.479 566.929 116.704 577.997 129.155C589.146 141.606 594.721 158.167 594.721 178.838V180.425C594.721 193.283 592.239 204.839 587.274 215.093C582.392 225.265 575.352 233.2 566.156 238.896C557.042 244.593 546.544 247.441 534.662 247.441C516.758 247.441 502.232 241.216 491.083 228.765C480.015 216.313 474.481 199.834 474.481 179.326V177.739ZM497.187 180.425C497.187 195.073 500.564 206.833 507.318 215.703C514.154 224.574 523.269 229.009 534.662 229.009C546.137 229.009 555.251 224.533 562.006 215.581C568.76 206.548 572.138 193.934 572.138 177.739C572.138 163.254 568.679 151.535 561.762 142.583C554.926 133.55 545.811 129.033 534.418 129.033C523.269 129.033 514.276 133.468 507.44 142.339C500.604 151.209 497.187 163.905 497.187 180.425ZM623.529 233.159C623.529 229.253 624.669 225.998 626.947 223.394C629.307 220.789 632.807 219.487 637.445 219.487C642.084 219.487 645.583 220.789 647.943 223.394C650.385 225.998 651.605 229.253 651.605 233.159C651.605 236.903 650.385 240.036 647.943 242.559C645.583 245.081 642.084 246.343 637.445 246.343C632.807 246.343 629.307 245.081 626.947 242.559C624.669 240.036 623.529 236.903 623.529 233.159ZM76.7764 538H53.3389V360.266H76.7764V538ZM259.76 538C258.458 535.396 257.4 530.757 256.586 524.084C246.088 534.989 233.555 540.441 218.988 540.441C205.967 540.441 195.266 536.779 186.884 529.455C178.583 522.049 174.433 512.691 174.433 501.379C174.433 487.626 179.641 476.965 190.058 469.396C200.556 461.747 215.285 457.922 234.247 457.922H256.22V447.546C256.22 439.652 253.86 433.386 249.14 428.747C244.42 424.027 237.462 421.667 228.266 421.667C220.209 421.667 213.454 423.701 208.002 427.771C202.549 431.84 199.823 436.763 199.823 442.541H177.118C177.118 435.949 179.438 429.602 184.076 423.498C188.796 417.313 195.144 412.43 203.119 408.85C211.176 405.269 220.006 403.479 229.608 403.479C244.826 403.479 256.749 407.303 265.375 414.953C274.001 422.521 278.477 432.979 278.803 446.325V507.116C278.803 519.242 280.349 528.885 283.441 536.047V538H259.76ZM222.284 520.788C229.364 520.788 236.078 518.957 242.426 515.295C248.773 511.633 253.371 506.872 256.22 501.013V473.913H238.52C210.85 473.913 197.016 482.01 197.016 498.205C197.016 505.285 199.376 510.819 204.096 514.807C208.816 518.794 214.879 520.788 222.284 520.788ZM335.443 405.92L336.054 420.568C345.738 409.175 358.799 403.479 375.238 403.479C393.712 403.479 406.285 410.559 412.958 424.719C417.353 418.371 423.049 413.244 430.048 409.338C437.128 405.432 445.469 403.479 455.072 403.479C484.044 403.479 498.773 418.819 499.262 449.499V538H476.679V450.842C476.679 441.402 474.522 434.362 470.209 429.724C465.896 425.004 458.653 422.644 448.48 422.644C440.098 422.644 433.14 425.166 427.606 430.212C422.073 435.176 418.858 441.89 417.963 450.354V538H395.258V451.452C395.258 432.246 385.858 422.644 367.06 422.644C352.248 422.644 342.117 428.951 336.664 441.564V538H314.081V405.92H335.443ZM644.159 455.358L622.431 477.941V538H598.993V360.266H622.431V448.156L701.41 360.266H729.73L659.784 438.757L735.224 538H707.147L644.159 455.358ZM833.734 538C832.432 535.396 831.374 530.757 830.561 524.084C820.062 534.989 807.53 540.441 792.963 540.441C779.942 540.441 769.241 536.779 760.858 529.455C752.558 522.049 748.407 512.691 748.407 501.379C748.407 487.626 753.616 476.965 764.032 469.396C774.53 461.747 789.26 457.922 808.222 457.922H830.194V447.546C830.194 439.652 827.834 433.386 823.114 428.747C818.394 424.027 811.436 421.667 802.24 421.667C794.184 421.667 787.429 423.701 781.977 427.771C776.524 431.84 773.798 436.763 773.798 442.541H751.093C751.093 435.949 753.412 429.602 758.051 423.498C762.771 417.313 769.118 412.43 777.094 408.85C785.15 405.269 793.98 403.479 803.583 403.479C818.801 403.479 830.723 407.303 839.35 414.953C847.976 422.521 852.452 432.979 852.777 446.325V507.116C852.777 519.242 854.324 528.885 857.416 536.047V538H833.734ZM796.259 520.788C803.339 520.788 810.053 518.957 816.4 515.295C822.748 511.633 827.346 506.872 830.194 501.013V473.913H812.494C784.825 473.913 770.99 482.01 770.99 498.205C770.99 505.285 773.35 510.819 778.07 514.807C782.79 518.794 788.853 520.788 796.259 520.788ZM912.714 538H890.131V350.5H912.714V538ZM973.505 538H950.922V405.92H973.505V538ZM949.091 370.886C949.091 367.224 950.189 364.131 952.387 361.608C954.665 359.086 958.002 357.824 962.396 357.824C966.791 357.824 970.128 359.086 972.406 361.608C974.685 364.131 975.824 367.224 975.824 370.886C975.824 374.548 974.685 377.6 972.406 380.041C970.128 382.482 966.791 383.703 962.396 383.703C958.002 383.703 954.665 382.482 952.387 380.041C950.189 377.6 949.091 374.548 949.091 370.886ZM1031.12 405.92L1031.85 422.521C1041.95 409.826 1055.13 403.479 1071.41 403.479C1099.32 403.479 1113.4 419.226 1113.64 450.72V538H1091.06V450.598C1090.98 441.076 1088.78 434.037 1084.47 429.479C1080.24 424.922 1073.6 422.644 1064.57 422.644C1057.25 422.644 1050.82 424.597 1045.28 428.503C1039.75 432.409 1035.44 437.536 1032.34 443.884V538H1009.76V405.92H1031.12ZM1229.24 538C1227.94 535.396 1226.88 530.757 1226.07 524.084C1215.57 534.989 1203.04 540.441 1188.47 540.441C1175.45 540.441 1164.75 536.779 1156.37 529.455C1148.07 522.049 1143.92 512.691 1143.92 501.379C1143.92 487.626 1149.12 476.965 1159.54 469.396C1170.04 461.747 1184.77 457.922 1203.73 457.922H1225.7V447.546C1225.7 439.652 1223.34 433.386 1218.62 428.747C1213.9 424.027 1206.94 421.667 1197.75 421.667C1189.69 421.667 1182.94 423.701 1177.48 427.771C1172.03 431.84 1169.31 436.763 1169.31 442.541H1146.6C1146.6 435.949 1148.92 429.602 1153.56 423.498C1158.28 417.313 1164.63 412.43 1172.6 408.85C1180.66 405.269 1189.49 403.479 1199.09 403.479C1214.31 403.479 1226.23 407.303 1234.86 414.953C1243.48 422.521 1247.96 432.979 1248.29 446.325V507.116C1248.29 519.242 1249.83 528.885 1252.92 536.047V538H1229.24ZM1191.77 520.788C1198.85 520.788 1205.56 518.957 1211.91 515.295C1218.26 511.633 1222.85 506.872 1225.7 501.013V473.913H1208C1180.33 473.913 1166.5 482.01 1166.5 498.205C1166.5 505.285 1168.86 510.819 1173.58 514.807C1178.3 518.794 1184.36 520.788 1191.77 520.788Z" fill="white"/>
<path id="Vector 18" d="M505 247C513.109 240.855 522.902 231.918 531.868 227.594C536.827 225.203 541.361 221.052 546.268 219.775C566.9 214.406 585.815 208 607.325 208C617.19 208 626.107 212.702 635.642 213.087C644.114 213.429 648.765 219.683 655.27 224.957C665.05 232.885 674.412 242.477 686 247" stroke="black" stroke-linecap="round" stroke-linejoin="round"/>
<path id="Vector 19" d="M701 312C696.01 306.269 690.891 301.86 686.007 296.468C682.829 292.959 678.707 292.837 676.067 288.795C671.287 281.477 664.49 280 657 280" stroke="black" stroke-linecap="round" stroke-linejoin="round"/>
<path id="Vector 20" d="M663 322C668.62 311.5 673.926 300.98 679.261 290.514C681.442 286.236 684.913 283.086 686.981 278.914C690.059 272.702 693.862 269.276 697 264" stroke="black" stroke-linecap="round" stroke-linejoin="round"/>
<path id="Vector 21" d="M509 264C524.373 260.769 541.165 255.348 555.609 248.19C560.834 245.601 570.628 240 576 240" stroke="black" stroke-linecap="round" stroke-linejoin="round"/>
<path id="Vector 22" d="M598 235C621.507 230.741 643.786 232.265 667 232.265" stroke="black" stroke-linecap="round" stroke-linejoin="round"/>
<path id="Vector 23" d="M473.184 210.901C483.943 208.116 493.738 202.795 503.212 196.587C508.258 193.281 511.028 193.507 501.904 194.215C491.906 194.992 482.891 201.125 473.184 201.754C472.458 201.801 470.712 203.278 471.439 203.278C475.744 203.278 480.404 199.327 484.163 197.349C490.233 194.156 501.105 192.493 486.272 194.893C480.627 195.806 475.581 198.704 470.058 198.704C460.614 198.704 488.825 195.655 498.268 195.655C507.911 195.655 492.016 200.458 488.307 202.939C484.263 205.645 476.591 208.098 473.475 212.764C468.298 220.518 489.431 205.582 496.087 199.551C496.542 199.139 499.624 198.226 498.486 199.551C496.806 201.509 493.735 202.272 491.507 202.939C487.352 204.184 483.87 206.637 480.019 208.191C479.291 208.484 475.582 212.532 476.602 209.207C478.25 203.829 482.604 200.237 486.272 196.841C489.759 193.612 494.484 181.934 499.359 181.934C502.331 181.934 491.978 190.984 490.852 191.844C484.67 196.563 478.371 201.713 472.53 207.005C471.849 207.621 469.877 207.852 470.131 207.852C474.733 207.852 479.157 207.637 483.654 206.327C489.717 204.562 493.267 202.029 499.65 201.754C502.842 201.616 505.667 200.229 509.029 200.229C514.504 200.229 498.16 201.895 492.815 203.278C487.705 204.601 483.043 206.664 477.838 207.767C470.799 209.258 473.198 209.971 480.237 208.36C486.909 206.833 493.372 203.029 500.013 201.838C500.26 201.794 505.573 201.751 504.303 200.568C500.561 197.081 483.543 199.931 478.419 200.229C476.491 200.341 471.223 202.262 477.329 201.669C485.068 200.917 494.125 197.21 501.395 194.131C506.048 192.16 509.414 189.928 501.976 192.606C494.561 195.276 485.951 200.779 478.419 201.754C476.846 201.957 469.106 207.763 468.24 209.376C467.269 211.187 461.363 214.312 466.641 213.95C469.705 213.74 473.309 208.98 476.456 207.852C481.489 206.048 487.108 202.761 491.507 199.467C494.182 197.463 499.341 195.62 500.959 192.606C502.324 190.06 502.958 190.717 499.286 192.691C494.899 195.05 490.288 196.729 486.272 199.89C480.926 204.097 472.78 203.854 467.877 208.614C464.526 211.867 476.71 204.443 478.419 203.447C484.833 199.712 494.005 199.058 499.432 193.368C502.455 190.199 508.117 191.763 510.847 189.218C515.962 184.451 503.706 190.468 501.686 191.759C489.662 199.44 479.096 206.645 468.604 216.152C461.554 222.54 484.085 205.496 492.525 202.092C494.341 201.36 510.842 191.111 509.538 189.896C507.405 187.908 503.47 191.134 501.976 192.606C497.323 197.193 490.872 199.152 485.254 201.669C480.85 203.642 475.253 206.005 471.221 208.614C470.632 208.996 468.382 209.438 468.822 209.292C482.651 204.689 495.625 193.465 509.102 187.185C511.978 185.845 514.549 183.459 517.681 183.459C521.254 183.459 508.894 186.708 507.211 187.355C499.602 190.282 491.563 194.656 484.236 197.095C481.563 197.985 482.438 202.142 480.382 204.803C478.262 207.547 474.92 210.198 472.53 212.425C468.444 216.234 478.661 209.76 479.074 209.546C481.543 208.267 486.787 209.095 488.598 207.513C492.484 204.118 496.554 203.104 500.668 200.568C507.615 196.284 491.39 199.735 489.907 200.229C483.485 202.366 477.174 204.687 470.785 206.92C468.795 207.615 462.528 207.852 464.605 207.852C475.47 207.852 485.713 201.754 496.087 201.754C497.908 201.754 505.159 202.86 500.668 200.991C495.913 199.013 487.821 199.535 483.073 200.991C478.649 202.347 473.817 201.754 469.258 201.754C465.536 201.754 476.704 200.967 480.31 199.89C487.696 197.684 495.612 196.466 502.631 193.453C508.094 191.108 510.797 192.606 502.558 192.606C494.857 192.606 487.611 193.778 480.019 195.316C478.517 195.621 466.225 195.655 472.166 195.655C481.993 195.655 489.709 192.374 499.068 189.896C502.921 188.876 514.856 186.188 503.14 188.71C494.534 190.563 485.492 193.393 477.183 196.418C475.985 196.854 468.515 201.754 472.53 201.754C482.313 201.754 492.511 195.086 502.267 192.945C510.821 191.067 519.614 190.019 528.006 187.27C532.097 185.93 535.753 183.539 540.075 183.459C558.473 183.119 575.614 177.361 594.169 177.361C604.651 177.361 573.315 174.311 562.833 174.311C561.111 174.311 551.077 175.943 557.161 177.361C568.938 180.104 581.652 178.95 593.297 176.175C599.571 174.68 607.831 173.317 595.624 176.598C591.254 177.773 587.278 179.292 583.409 181.934C579.555 184.566 574.356 184.153 570.103 185.746C566.917 186.939 563.527 188.879 560.215 189.472C554.568 190.484 565.869 186.916 566.831 186.508C575.183 182.97 583.554 183.459 592.279 183.459C603.864 183.459 569.11 183.459 557.525 183.459C550.821 183.459 552.721 183.544 558.252 180.41C565.386 176.367 578.153 171.679 586.317 174.396C587.933 174.934 587.544 175.836 585.953 175.836C580.21 175.836 574.466 175.836 568.722 175.836C566.141 175.836 552.092 175.836 562.033 175.836C573.893 175.836 585.559 176.025 597.369 177.276C599.694 177.522 609.221 179.251 601.295 178.8C589.298 178.119 577.385 177.361 565.377 177.361C560.557 177.361 558.795 180.556 554.907 181.85C550.117 183.444 558.229 183.459 559.561 183.459C569.843 183.459 582.822 180.824 592.715 183.798C593.622 184.07 596.269 184.983 595.333 184.983C586.062 184.983 576.885 183.891 567.631 183.543C560.033 183.258 552.012 180.41 544.656 180.41C527.326 180.41 579.166 175.836 596.496 175.836C635.974 175.836 518.687 192.681 479.292 195.655C464.48 196.774 498.618 196.892 499.941 196.841C508.046 196.528 518.984 197.892 526.697 194.131C530.626 192.215 534.623 190.277 538.694 188.795C543.499 187.046 548.94 187.974 553.599 186.423C563.159 183.241 574.311 182.145 584.572 180.41C589.882 179.512 595.397 177.361 600.786 177.361C600.798 177.361 588.984 177.361 585.735 177.361C582.682 177.361 579.628 177.361 576.574 177.361C575.92 177.361 575.266 177.361 574.611 177.361C567.889 177.361 587.9 174.988 594.533 173.719C626.576 167.584 658.491 160.604 690.434 153.815C698.449 152.111 722.574 148.394 714.428 148.394C690.536 148.394 666.672 152.619 643.029 156.186C573.377 166.693 504.506 183.155 434.649 192.098C425.495 193.27 416.426 194.131 407.239 194.131C363.228 194.131 495.593 196.423 538.912 205.48C541.969 206.119 554.516 206.327 543.42 206.327C529.508 206.327 515.597 206.327 501.686 206.327C501.19 206.327 490.385 206.846 494.706 204.803C529.311 188.438 565.622 173.031 601.586 161.268C610.451 158.368 620.1 158.808 629.214 159.15C637.83 159.474 646.216 160.615 654.517 163.301C654.852 163.409 657.201 163.842 655.462 164.486C646.343 167.867 634.998 167.882 625.652 169.23C597.367 173.307 568.345 179.987 539.93 181.934C533.397 182.382 553.186 183.656 559.561 181.934C572.117 178.543 584.791 176.168 597.369 172.787C598.276 172.543 603.785 171.262 602.894 171.262C582.615 171.262 562.193 172.802 541.966 174.311C533.183 174.967 524.091 175.717 515.645 178.885C510.51 180.812 505.666 183.459 500.159 183.459C496.4 183.459 497.341 183.565 501.54 183.12C512.576 181.951 523.574 177.361 534.622 177.361C549.697 177.361 564.771 177.361 579.846 177.361C595.479 177.361 548.683 180.306 533.095 181.68C489.447 185.527 445.79 189.366 402.076 192.098C382.259 193.336 359.566 196.828 339.548 193.114C332.657 191.836 301.74 188.837 301.74 177.361C301.74 174.554 300.254 165.041 303.631 165.164C369.773 167.572 435.629 176.664 501.395 184.645C506.077 185.213 510.247 186.735 514.773 187.694C521.153 189.045 502.991 181.377 497.105 178.207C448.046 151.788 398.845 125.378 350.672 96.8128C328.698 83.7826 313.999 60.4667 296.069 41.251C295.011 40.1165 292.4 37.2702 290.689 37.2702C289.407 37.2702 291.097 39.5973 291.125 39.6417C297.66 50.2146 303.483 61.3787 310.174 71.8269C376.125 174.812 463.753 258.009 559.633 320.669C647.546 378.123 742.376 425.273 841.084 450.427C848.588 452.339 848.059 449.371 844.428 442.973C803.936 371.628 746.431 311.941 693.488 253.589C638.977 193.509 585.505 132.538 533.095 69.9636C520.279 54.6619 507.736 38.4566 492.525 26.2594C477.238 14.0027 459.165 12.7078 441.12 12.7078C437.271 12.7078 437.353 20.6087 436.249 24.9043C424.898 69.0631 418.562 115.003 412.255 160.421C410.76 171.194 405.186 191.443 408.184 203.956C414.142 228.827 424.618 251.952 436.176 273.831C441.89 284.648 447.733 297.529 457.189 304.746C484.867 325.871 409.676 251.043 384.918 225.469C355.141 194.712 324.001 158.063 289.235 134.165C278.162 126.554 264.501 123.959 252.445 119.258C244.503 116.161 234.117 113.192 227.724 106.384C226.53 105.112 224.47 103.129 222.635 104.351C219.331 106.55 231.568 122.39 232.523 123.831C246.799 145.375 265.271 162.583 281.673 181.85C301.899 205.607 360.623 279.067 340.421 255.283C281.862 186.342 222.525 117.486 166.577 45.6553C158.164 34.8538 150.429 23.9077 142.511 12.7078C142.251 12.3407 139.025 8.29809 138.439 9.15046C135.875 12.8839 155.993 35.5875 157.561 37.6937C173.431 59.0046 188.606 80.8554 205.185 101.471C219.961 119.845 234.857 139.035 252.517 153.73C256.819 157.309 260.358 162.017 264.078 166.35C265.657 168.189 265.143 165.917 264.223 164.825C247.163 144.562 225.637 126.149 206.93 108.671C163.129 67.7471 117.987 29.6991 71.1123 -6.26457C58.6651 -15.8144 45.5643 -27.3024 31.9957 -35.0619C26.6386 -38.1254 28.93 -33.0199 31.2686 -29.3024C55.2088 8.75356 83.5549 44.4533 110.956 78.8568C174.074 158.105 240.141 234.645 310.974 304.577C321.166 314.639 331.571 324.023 342.311 333.205C342.545 333.405 345.888 335.635 346.164 336.762C346.205 336.927 346.329 338.666 345.946 338.625C344.084 338.428 342.663 336.514 341.148 335.237C325.773 322.286 310.522 309.137 295.197 296.107C205.291 219.668 115.943 142.694 29.9599 60.308C21.9056 52.5907 14.079 44.3753 5.82101 36.9314C-11.2225 21.568 41.5257 65.0556 59.4791 78.9415C128.586 132.392 197.798 185.679 268.004 237.157C283.684 248.655 299.986 259.351 315.409 271.375C321.481 276.108 328.332 279.659 334.168 284.757C359.862 307.206 282.26 240.632 257.243 217.169C208.634 171.578 160.993 124.74 114.664 76.0618C31.2447 -11.5874 271.406 264.224 357.507 348.281C377.238 367.544 371.91 361.869 359.034 347.434C328.683 313.409 298.579 279.066 268.876 244.272C237.272 207.251 212.24 163.547 187.735 120.02C182.045 109.912 176.206 99.7201 171.739 88.7665C170.631 86.0478 169.957 83.1849 168.322 80.8049C166.718 78.4693 168.825 80.535 170.14 81.6519C190.06 98.5763 209.71 115.916 229.76 132.64C244.009 144.526 257.66 158.542 272.076 169.738C272.267 169.886 274.546 172.843 274.257 172.787C252.314 168.527 226.088 155.596 206.13 147.632C157.243 128.122 108.903 107.102 60.8605 84.9551C52.6629 81.1762 46.5738 76.7394 38.0304 76.7394C30.0835 76.7394 55.2974 105.969 58.6066 109.433C69.6933 121.038 80.8287 132.729 91.6158 144.667C124.297 180.834 161.949 211.135 196.46 244.949C197.845 246.307 199.526 247.763 200.677 249.438C201.682 250.902 198.109 247.178 196.823 246.051C183.766 234.605 178.31 230.083 162.796 217.423C127.488 188.61 91.777 160.465 55.9891 132.471C43.1684 122.442 29.559 109.867 15.273 102.149C2.94291 95.4875 35.7781 122.966 46.5372 132.64C84.8159 167.06 122.969 201.687 161.56 235.633C167.557 240.907 186.531 254.962 179.81 251.048C173.823 247.56 167.967 236.807 162.578 231.737C156.947 226.438 150.759 221.944 144.765 217.253C109.586 189.722 74.7321 161.633 41.2295 131.37C28.4961 119.867 17.0868 108.158 5.82101 95.0341C-39.912 41.7591 95.517 203.722 142.947 254.944C151.303 263.968 160.991 271.177 169.267 280.014C170.808 281.66 173.401 281.8 174.502 284.08C175.066 285.247 172.305 283.174 171.376 282.386C154.897 268.404 138.681 253.933 122.589 239.359C104.014 222.537 85.6232 205.446 67.695 187.694C64.5049 184.535 59.7872 180.698 57.0797 176.598C56.1544 175.197 53.8335 170.523 51.7721 171.262C48.4439 172.455 55.8458 177.889 58.3158 180.748C87.5109 214.546 117.611 247.508 148.328 279.422C152.502 283.759 157.302 288.844 162.142 292.55C162.962 293.178 161.168 290.551 160.542 289.67C109.26 217.37 221.531 376.229 119.826 232.414C80.5829 176.923 41.3476 121.41 2.84 65.2205C-62.2703 -29.7863 6.62513 70.6972 -13.301 41.0816C-14.8483 38.782 -16.5292 37.6567 -10.9017 43.4531C10.9641 65.9756 34.0907 87.0713 57.007 108.078C93.2906 141.337 129.588 175.999 168.686 204.803C173.301 208.203 178.158 211.225 182.864 214.458C185.041 215.954 188.948 222.123 189.262 219.201C189.32 218.66 189.042 218.106 188.753 217.677C183.681 210.145 170.802 194.55 167.377 190.404C141.755 159.39 115.544 129.03 88.7802 99.3537C80.4989 90.1712 71.8464 80.1005 62.8236 71.6575C57.105 66.3064 72.8256 84.1846 78.2376 89.9523C110.219 124.035 142.732 157.441 175.375 190.658C193.418 209.019 211.329 228.656 230.56 245.458C232.353 247.024 234.306 248.921 236.304 250.201C249.231 258.484 214.535 226.994 203.585 215.475C158.891 168.455 114.311 121.288 69.8035 74.0291C56.0072 59.3798 41.8412 42.2445 27.0516 28.4616C17.467 19.5295 43.7335 49.4513 52.4265 59.5457C91.81 105.279 131.957 150.447 174.139 192.691C183.413 201.979 192.816 210.635 202.858 218.693C208.822 223.479 192.147 207.335 186.717 201.754C158.336 172.581 130.745 141.262 100.85 114.176C100.56 113.914 99.5278 113.675 99.759 114.006C116.106 137.462 134.054 159.916 151.09 182.612C170.396 208.33 189.328 234.743 209.402 259.687C211.302 262.048 217.834 268.066 215.509 266.293C200.487 254.839 185.614 239.512 171.885 226.739C128.055 185.965 84.2864 144.962 41.5931 102.572C37.0303 98.042 27.8479 85.5716 21.6712 81.1437C17.7489 78.3319 27.5693 89.3912 30.6869 93.3402C43.7607 109.9 57.5912 126.505 71.1123 142.465C91.0272 165.972 111.141 189.32 131.823 211.917C132.444 212.596 145.058 223.274 145.928 226.316C146.004 226.58 145.449 226.166 145.274 225.977C137.271 217.338 126.167 203.548 119.972 195.825C80.2834 146.348 41.2053 96.0206 3.93061 44.046C3.15761 42.9681 -6.42282 26.858 -10.0292 24.0573C-11.9423 22.5716 -7.53932 28.5723 -6.10301 30.6637C2.64114 43.3965 17.0084 63.4664 25.0158 74.5372C42.7828 99.1015 60.9396 123.205 79.2555 147.208C83.1495 152.311 87.5436 160.412 92.3428 164.825C120.014 190.274 36.3622 114.863 9.02013 88.9359C-4.62235 75.9993 -18.0034 62.9497 -30.8962 49.0432C-40.4196 38.771 -15.0132 72.9838 -6.46655 84.3622C20.916 120.817 52.0116 154.225 78.2376 191.759C80.3644 194.803 81.415 195.622 82.0911 199.297C83.6272 207.648 87.5184 214.552 91.4704 221.573C97.4866 232.261 103.097 243.737 110.083 253.589C110.552 254.249 110.665 254.797 110.665 255.621C110.665 258.825 108.607 249.68 107.539 246.728C99.0635 223.309 91.3517 202.696 82.5273 178.885C72.9327 152.996 63.5928 126.929 53.8079 101.132C52.6707 98.1343 53.4317 99.1717 55.262 101.641C73.2401 125.89 92.6164 150.827 105.357 178.038C110.011 187.978 116.873 196.362 121.644 206.243C123.494 210.074 109.236 195.515 107.611 193.623C104.626 190.145 101.955 184.21 97.6505 183.374C95.6908 182.994 95.5815 179.778 94.3059 178.292C92.4706 176.154 100.243 190.407 101.359 192.267C103.827 196.382 110.323 205.541 110.665 210.054C111.21 217.249 149.423 265.695 152.545 262.058C157.163 256.679 153.947 232.683 152.254 226.655C148.792 214.334 139.124 200.675 138.221 187.524C137.285 173.886 138.079 163.974 133.713 150.511C125.686 125.758 119.266 96.3019 106.739 74.0291C102.404 66.3206 104.405 88.5345 104.63 90.3758C107.554 114.217 113.212 138.259 120.117 160.929C126.371 181.46 140.295 197.932 148.909 216.999C149.181 217.6 149.782 218.397 149.782 219.117C149.782 223.689 146.246 210.934 144.838 206.666C129.288 159.54 121.01 110.839 112.774 61.4938C111.344 52.926 110.001 39.4979 106.448 31.6801C105.446 29.4753 106.441 36.7348 107.03 39.1335C118.68 86.6336 135.551 133.023 152.472 178.207C168.826 221.876 187.629 261.365 212.746 298.817C223.063 314.2 235.27 327.399 246.919 341.336C248.179 342.843 248.678 345.313 250.045 346.587C251.069 347.541 249.889 344.91 249.827 344.724C242.524 322.745 233.894 301.386 225.397 280.014C209.269 239.447 185.263 196.783 185.263 150.257C185.263 147.857 185.263 145.458 185.263 143.058C185.263 140.174 186.912 148.5 187.59 151.274C197.141 190.36 207.826 228.806 219.872 266.971C234.601 313.636 249.757 360.175 267.859 405.198C277.276 428.621 262.707 353.732 257.97 328.462C247.128 270.62 234.742 213.249 221.762 156.017C218.388 141.137 212.221 122.841 211.438 106.722C211.057 98.8977 211.438 108 211.438 110.788C211.438 130.264 217.865 151.263 221.907 169.568C229.896 205.739 238.427 241.894 249.536 276.965C252.843 287.405 256.048 298.555 263.351 306.101C267.539 310.429 271.369 314.465 276.511 317.112C301.499 329.974 330.454 343.013 358.016 345.062C363.259 345.452 367.057 335.286 369.14 331.511C370.369 329.283 371.977 328.808 374.011 329.478C385.571 333.284 397.911 339.808 409.711 341.844C417.027 343.107 424.488 343.538 431.887 343.538C440.512 343.538 448.262 327.975 452.099 320.754C462.673 300.857 466.658 280.157 472.166 258.501C473.315 253.987 472.546 249.674 473.257 245.119C474.322 238.297 478.181 229.059 480.382 222.505C483.71 212.599 487.924 202.227 493.252 193.623C494.397 191.773 504.198 181.584 499.068 183.798C494.828 185.627 491.161 190.475 488.598 193.792C487.376 195.374 482.288 200.724 480.746 201.415C466.973 207.586 485.025 220.323 492.743 213.018C496.717 209.256 503.638 202.051 506.194 197.18C508.701 192.401 502.979 194.131 499.068 194.131C493.812 194.131 481.628 198.685 479.074 204.04C477.649 207.028 505.639 204.603 510.556 202.346C528.427 194.145 544.098 186.313 563.414 182.696C570.304 181.407 577.231 179.448 584.209 178.97C585.821 178.859 592.007 180.049 593.297 178.546C593.917 177.824 588.266 176.035 587.626 175.836C581.793 174.024 577.341 175.025 571.63 177.361C565.289 179.954 559.247 183.024 553.017 185.746C542.968 190.135 557.973 189.557 561.451 189.557C565.688 189.557 567.327 190.232 569.013 185.322C570.973 179.614 591.055 176.407 595.624 174.396C600.605 172.204 607.843 165.611 613.219 165.164C620.278 164.577 599.065 165.058 591.988 165.164C584.418 165.277 576.122 168.057 569.013 170.923C564.514 172.737 561.331 176.398 556.434 177.276C555.537 177.437 551.926 178.161 552.29 180.071C552.59 181.645 563.779 179.781 564.65 179.647C571.121 178.655 579.378 178.506 585.445 175.836C588.806 174.356 591.683 172.787 595.333 172.787C603.619 172.787 578.8 174.348 570.612 175.836C566.544 176.575 552.671 179.245 565.668 180.41C576.442 181.375 587.222 181.934 598.023 181.934C608.478 181.934 577.141 180.41 566.686 180.41C563.453 180.41 560.173 180.212 556.943 180.41C555.913 180.473 552.362 183.035 554.689 183.374C565.949 185.014 577.598 175.664 588.062 171.601C599.586 167.126 563.92 174.982 551.999 177.699C541.53 180.085 551.44 180.51 557.016 179.563C563.155 178.52 570.996 178.422 576.72 175.497C581.628 172.989 585.514 171.262 590.97 171.262C591.191 171.262 597.317 171.262 594.315 171.262C586.681 171.262 579.168 171.14 571.63 172.787C565.547 174.116 560.07 177.361 553.817 177.361C552.769 177.361 548.969 176.656 548.073 177.699C546.785 179.199 551.635 178.918 553.453 178.8C562.46 178.217 571.206 175.324 579.919 172.787C585.434 171.181 593.855 169.734 582.391 172.787C574.99 174.757 567.466 174.311 559.924 174.311C552.401 174.311 541.046 177.361 555.271 177.361C564.249 177.361 573.639 178.27 582.536 176.598C584.312 176.265 600.435 175.289 592.57 175.921C582.988 176.69 573.679 177.361 564.069 177.361C560.819 177.361 556.414 178.885 562.178 178.885C567.296 178.885 575.217 180.523 577.883 174.311" stroke="black" stroke-linecap="round" stroke-linejoin="round"/>
<path id="Vector 24" d="M82.929 465.778C95.9756 469.711 104.228 482.52 116.169 487.488C120.168 489.151 126.159 492.204 128.855 496.209C130.712 498.969 120.466 493.922 120.184 493.797C113.103 490.65 108.565 484.874 102.6 480.158C99.1154 477.403 94.8675 473.131 92.323 469.211C91.0718 467.283 82.2186 463.798 85.8195 468.19C90.4367 473.822 95.5244 478.086 100.914 482.849C106.169 487.493 114.797 490.942 118.979 496.58C123.55 502.741 117.415 495.433 115.286 492.405C110.607 485.75 101.994 483.726 96.5783 477.468C93.6157 474.044 90.625 471.381 87.5858 468.747C82.4865 464.327 97.3079 478.294 102.439 482.663C107.165 486.687 112.308 490.745 116.811 495.003C118.087 496.208 120.277 500.235 121.95 500.477C126.159 501.085 116.118 493.355 113.279 489.714C111.257 487.123 109.825 484.321 107.498 482.107C103.17 477.988 99.24 471.047 94.4908 467.819C92.7286 466.621 93.3272 464.584 91.5201 463.366C87.865 460.902 88.538 466.561 90.3157 468.468C95.5015 474.033 101.368 478.549 106.213 484.148C110.387 488.971 117.269 491.172 121.308 495.838C124.491 499.516 128.781 501.678 122.592 496.209C117.439 491.655 109.696 483.284 103.804 480.808C101.101 479.672 94.4786 474.428 93.0456 471.53C89.4306 464.22 85.9196 467.746 92.7244 475.427C95.9458 479.063 102.08 485.951 106.374 487.859C110.577 489.727 117.673 493.388 121.147 496.673C132.147 507.073 118.766 494.455 114.242 490.178C106.66 483.009 98.304 475.624 91.6003 467.448C90.571 466.192 89.8571 462.623 88.0676 462.623C85.3525 462.623 88.7796 468.02 89.3522 468.561C96.2084 475.043 105.246 481.958 111.031 489.251C114.58 493.725 119.196 495.81 122.753 499.92C124.685 502.153 126.55 502.907 128.052 505.858C129.296 508.301 127.592 502.241 125.964 500.848C119.003 494.889 110.825 488.981 105.571 480.808C101.854 475.027 96.3479 471.579 92.4032 465.778C90.3959 462.826 85.9566 457.979 82.2867 459.191C77.9002 460.639 91.0757 474.267 92.2427 475.705C102.944 488.896 116.366 499.405 127.41 512.167C135.602 521.633 124.884 505.881 121.95 502.889C115.55 496.363 111.204 488.43 105.25 481.55C101.037 476.682 96.9799 471.727 93.0456 466.613C92.0852 465.364 81.6425 456.575 83.2502 463.18C85.2612 471.442 97.5592 478.65 102.841 484.519C107.825 490.057 116.594 498.259 123.315 500.848C125.401 501.651 131.305 508.764 126.848 502.425C119.722 492.291 106.555 487.624 99.4688 477.097C96.4843 472.663 92.1961 470.368 89.0311 467.077C82.0943 459.863 90.5971 476.965 93.7682 480.066C104.136 490.203 114.349 502.834 126.286 510.497C129.204 512.37 126.754 510.446 125.162 508.827C120.032 503.61 115.218 498.078 110.388 492.498C106.324 487.802 102.305 481.616 98.0235 477.375C96.7551 476.119 90.1551 469.124 90.1551 473.386C90.1551 481.731 101.098 488.231 106.374 492.498C112.88 497.761 119.434 503.315 126.286 507.899C128.277 509.231 129.545 511.663 131.344 513.28C134.788 516.375 126.336 505.966 125.483 505.116C114.486 494.161 98.9933 483.38 91.2792 469.118C88.3724 463.744 84.1939 465.656 89.834 473.386C93.9338 479.004 102.321 485.362 108.301 488.323C112.373 490.34 133.79 501.358 133.512 505.858C133.48 506.371 123.991 499.913 122.753 499.178C117.705 496.178 112.12 493.324 107.498 489.529C101.549 484.645 96.9324 475.59 90.1551 472.458C87.4011 471.185 85.4175 462.875 80.8415 464.386C76.5671 465.797 92.4555 478.32 94.3302 479.509C104.611 486.031 114.519 496.407 125.964 500.477C144.293 506.993 90.0658 482.189 76.5058 466.52C60.8157 448.39 112.141 497.279 131.344 510.125C132.888 511.158 143.048 518.179 137.205 519.218C127.003 521.031 117.993 522.988 108.782 528.681C97.5409 535.629 86.643 543.295 75.3818 550.205C72.6493 551.882 65.3154 552.896 67.3528 555.587C72.1988 561.986 110.976 528.015 117.133 524.135C120.669 521.906 127.456 514.208 131.344 514.208C133.046 514.208 120.483 513.858 117.133 517.177C114.897 519.39 112.505 519.728 109.746 520.888C106.891 522.087 105.635 525.881 102.841 527.197C98.7209 529.136 94.0915 533.039 90.8777 536.753C89.5409 538.297 82.9531 542.056 86.0603 542.505C91.9766 543.359 96.9509 538.668 102.038 535.918C106.921 533.278 118.487 530.581 121.95 525.527C123.021 523.964 128.867 520.888 127.731 520.888C121.071 520.888 120.117 522.718 114.563 526.64C104.642 533.646 97.9108 539.942 89.834 549.649C83.6055 557.134 88.5313 551.154 91.6003 547.608C98.1302 540.062 106.763 534.23 112.556 525.99C114.554 523.148 121.459 514.798 124.118 514.115C129.836 512.647 127.433 506.869 121.95 512.538C118.247 516.366 112.879 518.01 108.943 522.558C101.646 530.989 93.2551 540.64 84.294 546.68C70.1423 556.219 112.125 526.517 124.84 514.579C127.826 511.776 134.088 505.618 126.286 510.125C114.831 516.744 104.418 525.752 93.8485 534.248C92.103 535.651 75.8635 546.988 75.8635 550.02C75.8635 557.301 87.3018 543.717 92.4032 539.443C101.763 531.602 111.862 524.848 120.505 515.97C121.584 514.862 130.461 507.825 130.461 506.693C130.461 501.263 107.627 526.768 107.177 527.197C99.9602 534.058 91.2461 541.166 84.6954 547.979C77.4281 555.537 87.8748 548.743 91.1186 546.494C101.119 539.561 115.584 528.562 122.673 517.64C123.737 516 128.343 515.657 127.089 514.208C124.881 511.657 117.526 517.726 115.848 518.847C106.269 525.242 94.6362 531.096 86.6224 540C84.5139 542.343 67.7697 561.039 80.44 550.391C94.9202 538.222 109.503 525.008 122.673 510.96C127.615 505.689 133.76 500.346 122.753 508.641C114.525 514.842 107.44 523.275 99.5491 530.073C91.9026 536.659 83.3878 543.082 77.4693 551.875C68.7656 564.806 102.407 536.282 114.965 528.681C119.081 526.19 122.889 523.555 126.928 520.888C127.444 520.547 129.66 518.455 128.534 517.919C123.919 515.723 113.506 526.611 110.549 529.052C101.995 536.112 93.0913 543.354 85.3377 551.597C83.5897 553.455 82.1314 556.79 80.0386 557.999C79.883 558.089 85.7436 553.329 87.1844 551.783C92.3366 546.254 97.0778 540.36 102.439 535.083C108.568 529.05 115.367 517.96 122.673 514.208C129.368 510.769 110.326 523.724 105.571 530.165C98.69 539.487 88.109 544.776 80.6809 553.36C67.1361 569.011 111.296 526.519 124.84 510.868C127.224 508.114 133.584 499.703 127.089 506.6C122.453 511.522 118.002 516.745 113.279 521.537C105.487 529.442 96.549 543.437 86.6224 547.608C84.4375 548.526 84.0018 550.457 82.6079 552.247C80.7468 554.636 94.6395 542.308 95.2937 541.763C100.203 537.67 111.017 532.316 114.724 526.454C117.043 522.787 120.316 522.23 122.271 519.218C124.465 515.838 130.303 511.466 122.432 516.62C106.335 527.16 93.7575 543.851 77.951 554.288C75.855 555.672 85.432 551.461 86.3012 550.948C97.8155 544.144 108.213 532.88 118.257 523.485C121.548 520.407 127.076 516.256 130.621 514.208" stroke="black" stroke-linecap="round" stroke-linejoin="round"/>
<path id="Vector 25" d="M113.175 520.473C101.255 529.344 88.1257 536.032 76.1136 543.926C72.3309 546.412 74.3052 547.236 76.761 544.857C81.4796 540.287 88.5229 536.266 94.2398 533.875C102.811 530.29 110.358 523.024 119.002 520.1C120.874 519.467 132.386 511.207 123.938 517.122C112.938 524.823 101.179 533.035 93.4306 545.229C92.5229 546.658 87.1188 549.994 87.1188 551.372C87.1188 555.347 92.9786 547.127 95.6964 544.671C102.598 538.434 108.36 530.672 115.765 525.126C129.507 514.834 100.757 533.262 98.8523 534.712C91.8701 540.03 84.27 545.728 78.2176 552.303C72.7079 558.287 77.3196 556.028 81.859 552.396C90.5971 545.404 99.3526 536.788 107.025 528.29C110.501 524.441 115.193 521.034 119.568 518.797C124.036 516.513 118.93 515.694 117.545 520.473" stroke="black" stroke-linecap="round" stroke-linejoin="round"/>
<path id="Vector 26" d="M121.943 609.353C109.825 598.129 74.5588 562.97 86.4035 574.568C94.1058 582.109 101.019 588.521 109.747 594.59C115.216 598.393 127.195 605.931 130.343 612.675C132.964 618.287 121.651 604.709 117.097 601.049C112.857 597.64 109.403 591.658 106.273 587.024C101.038 579.272 90.7228 569.543 82.0418 567.74C77.8869 566.877 75.327 565.557 80.4264 570.323C87.3967 576.838 96.1689 581.048 103.608 586.932C109.422 591.53 115.125 596.348 121.055 600.864C123.37 602.627 126.058 606.275 128.486 607.507C129.165 607.852 131.959 607.162 131.959 608.522C131.959 610.834 125.745 603.655 125.578 603.448C122.133 599.171 118.405 595.876 114.754 591.914C110.971 587.809 107.665 582.344 103.689 578.627C100.74 575.871 98.2351 570.29 95.1268 568.201C93.5191 567.121 88.1914 564.455 90.2805 569.493C96.1968 583.761 109.505 592.855 119.035 603.448C120.1 604.631 125.514 614.151 127.032 614.151C128.72 614.151 122.207 606.214 121.862 605.754C118.058 600.685 113.008 595.698 109.747 590.253C103.677 580.12 92.9376 573.207 87.6958 562.942C87.2773 562.122 82.0772 557.642 81.5572 558.236C77.9942 562.306 87.5728 570.303 89.1497 572.445C100.089 587.306 114.81 597.111 126.305 611.014C135.065 621.609 108.783 589.652 98.6808 580.75C93.8034 576.451 89.8895 571.076 85.5958 566.171C83.1141 563.336 78.4882 563.549 81.8802 567.832C90.8464 579.152 102.95 586.946 111.2 598.465C113.036 601.028 118.466 606.378 121.055 607.692C121.817 608.079 122.058 611.016 122.67 610.737C124.785 609.771 121.824 605.895 121.135 605.108C111.434 594.026 104.369 580.235 94.6422 569.124C91.7245 565.791 89.2911 558.81 85.5958 556.575C80.9932 553.792 82.9719 563.043 84.4649 564.879C96.3043 579.444 134.918 619.582 122.993 605.108C117.045 597.889 108.482 592.499 102.154 585.271C98.0885 580.627 91.7589 575.763 88.5843 570.323C87.8609 569.084 82.3736 562.861 81.3148 567.094C80.0093 572.314 94.7517 582.589 97.8731 585.917C104.98 593.494 125.593 616.918 119.52 608.246C112.656 598.445 106.597 587.999 98.6808 579.458C96.7012 577.322 93.0158 573.788 91.7344 571.154C90.8626 569.361 88.2105 566.356 86.3227 566.356C85.0737 566.356 95.8633 578.993 97.8731 580.196C105.631 584.838 112.392 593.275 118.389 600.126C119.768 601.701 120.575 600.465 120.166 598.65C118.906 593.053 115.741 590.827 112.412 587.024C106.728 580.531 102.415 572.349 96.9038 565.802C95.404 564.02 81.4493 545.445 81.2341 551.593C80.9456 559.83 88.59 564.731 93.1883 569.862C100.719 578.264 109.595 584.186 117.258 592.375C120.011 595.317 123.402 597.399 125.982 599.757C133.955 607.043 109.636 585.76 101.75 578.351C96.675 573.582 91.496 568.174 86.2419 563.772C83.619 561.575 80.2258 561.077 77.6801 558.697C76.7049 557.786 75.7347 555.004 74.6108 554.638C59.7861 549.799 96.4429 579.686 108.777 590.253C110.957 592.12 112.294 594.737 114.674 596.435C115.828 597.259 117.441 600.009 114.835 596.62C111.227 591.926 106.259 589.181 102.719 584.44C99.2515 579.796 94.7158 576.241 91.4113 571.523C90.6752 570.472 87.3569 566.723 85.9188 568.201C82.9886 571.214 91.7142 579.316 92.8652 580.38C100.088 587.06 110.193 590.233 116.128 598.465C117.812 600.802 122.157 604.878 124.285 606.769C132.175 613.779 113.289 595.861 111.524 594.036C107.432 589.807 102.853 586.852 99.4077 582.041C97.3771 579.206 89.1179 568.863 86.2419 567.924C81.832 566.485 81.9168 568.427 85.8381 572.907C94.5821 582.895 106.943 587.521 115.239 597.727C117.414 600.403 123.138 607.089 126.305 607.692C129.641 608.327 115.688 596.258 112.897 593.667C107.332 588.503 101.756 583.381 96.5807 577.797C93.1947 574.144 84.6405 561.189 79.7802 561.189C76.6321 561.189 94.3372 578.398 97.0654 580.196C102.929 584.06 107.068 590.408 112.493 594.221C116.222 596.842 119.549 602.612 123.397 604.37C124.056 604.672 126.272 607.809 126.789 607.415C128.237 606.313 117.486 596.949 117.42 596.897C107.929 589.443 99.8547 581.271 91.0882 572.814C88.611 570.425 83.5496 562.849 79.7802 562.849C75.7375 562.849 91.6406 577.026 92.8652 578.166C97.5248 582.503 102.142 586.734 106.273 591.453C109.526 595.168 113.947 598.29 116.451 602.709C117.289 604.189 118.737 604.328 119.358 606.031C122.014 613.312 109.164 595.382 103.85 590.345C98.0186 584.818 91.5325 580.747 86.4035 575.213C85.6092 574.356 82.1693 573.727 81.5572 575.213C80.1338 578.668 85.0167 580.316 86.7266 581.488C99.5036 590.245 108.675 603.452 120.408 613.505C121.843 614.734 130.186 623.962 124.366 618.026C115.317 608.796 105.134 599.932 96.5807 590.161C91.0469 583.839 83.7829 577.433 80.1033 569.493C79.6428 568.499 78.3011 566.78 77.1955 568.201C75.5546 570.31 88.9036 579.298 89.7959 580.011C102.129 589.874 113.918 600.078 125.659 610.645C128.044 612.792 133.701 620.274 132.928 616.919C131.733 611.733 123.86 606.242 120.651 602.894C116.16 598.21 111.154 594.113 106.758 589.331C99.2391 581.15 93.1281 571.269 85.7573 562.849C83.4459 560.209 75.9725 553.656 75.3377 550.393C74.4779 545.973 68.6914 548.337 72.0261 552.146C83.3174 565.045 99.3486 572.65 111.685 584.256C115.99 588.306 120.698 594.595 125.497 597.727C138.065 605.931 103.571 576.1 92.0575 566.079C87.5269 562.136 81.0748 555.51 75.7416 553.253C67.4496 549.745 87.2267 567.015 88.1805 567.832C100.21 578.139 112.052 590.086 123.074 601.418C123.937 602.305 127.653 607.082 124.528 603.909C116.122 595.374 107.197 587.526 99.2462 578.443C94.7273 573.281 88.919 566.495 83.3341 562.849C75.7084 557.872 80.9101 565.801 84.0611 569.4C96.7283 583.871 110.975 595.989 123.397 611.014C125.87 614.004 124.249 612.672 122.428 610.276C117.024 603.163 110.558 597.407 104.819 590.715C97.896 582.641 87.4564 573.335 82.688 563.588C82.2417 562.675 75.8111 556.019 75.7416 556.575C75.008 562.441 91.9838 575.462 95.2884 578.535C101.047 583.89 106.708 589.692 112.897 594.405C118.289 598.512 125.672 607.184 127.759 614.335" stroke="black" stroke-linecap="round" stroke-linejoin="round"/>
<path id="Vector 27" d="M94 422V666" stroke="black"/>
<path id="Vector 28" d="M101 421V666" stroke="black"/>
<path id="Vector 29" d="M113 426V670" stroke="black"/>
<path id="Vector 30" d="M106 426V670" stroke="black"/>
<path id="Vector 31" d="M99 426V670" stroke="black"/>
</g>
</g>
<defs>
<clipPath id="clip0">
<rect width="1347" height="609" fill="white"/>
</clipPath>
</defs>
</svg>
